<svg xmlns="http://www.w3.org/2000/svg" xmlns:xlink="http://www.w3.org/1999/xlink" data-name="Layer 9" preserveAspectRatio="xMidYMid meet" version="1.0" viewBox="7.5 306.9 931.9 259.9" zoomAndPan="magnify" style="fill: rgb(0, 0, 0);" original_string_length="22332" width="340.79999999999995px" height="95.07296137339056px"><g id="__id22_swhbt1xc48" style="fill: rgb(255, 172, 199);"><path d="M7.97,562.67l-.5-.03c1.17-21.41,7.9-42.79,19.46-61.82,11.56-19.04,27.43-34.87,45.88-45.78,52.13-30.83,118.19-22.07,163.34-12.81,11.2,2.3,22.6,4.89,33.63,7.4,42.95,9.77,87.36,19.88,131.5,15.31,55.06-5.7,105.25-33.66,153.78-60.7,51.65-28.78,105.06-58.53,164.12-61.12,25.32-1.11,50.83,2.91,75.5,6.8,11.88,1.87,24.15,3.81,36.26,5.15,46.85,5.19,82.21-1.19,108.1-19.49l.29,.41c-26,18.38-61.47,24.78-108.45,19.58-12.12-1.34-24.41-3.28-36.29-5.15-24.64-3.89-50.13-7.91-75.4-6.79-58.95,2.59-112.3,32.31-163.9,61.06-48.58,27.06-98.81,55.05-153.97,60.76-44.22,4.57-88.68-5.54-131.67-15.32-11.03-2.51-22.43-5.1-33.62-7.4-45.07-9.25-111-17.99-162.98,12.75-37.76,22.33-62.7,63.4-65.1,107.2Z" style="fill: inherit;"/><path d="M9.58,562.88l-.5-.05c1.89-17.03,6.95-33.78,15.03-49.79,12.82-25.38,32.7-46.53,55.96-59.55,31.09-17.4,69.17-23.3,116.42-18.05,13.97,1.55,28.83,4.05,45.43,7.65,10.36,2.24,20.9,4.73,31.1,7.14,13.37,3.16,27.2,6.42,40.85,9.18,36.96,7.48,65.23,9.61,91.67,6.92,43.66-4.44,83.69-23.09,113.69-38.84,14-7.35,28.07-15.32,41.67-23.02,49.94-28.27,101.58-57.51,158.75-61.14,25.59-1.61,51.48,2.06,76.52,5.61,11.12,1.58,22.63,3.21,33.98,4.36,46.53,4.71,81.65-1.24,107.35-18.2l.28,.42c-25.8,17.02-61.02,23-107.67,18.28-11.36-1.15-22.87-2.78-34-4.36-25.01-3.54-50.87-7.21-76.41-5.6-57.05,3.62-108.64,32.83-158.54,61.07-13.61,7.7-27.68,15.67-41.69,23.03-30.04,15.77-70.12,34.45-113.87,38.9-26.49,2.7-54.81,.56-91.82-6.93-13.66-2.76-27.49-6.03-40.86-9.18-10.2-2.41-20.74-4.9-31.09-7.13-16.59-3.59-31.44-6.09-45.38-7.64-47.14-5.23-85.12,.65-116.12,17.99-23.18,12.97-42.98,34.04-55.76,59.34-8.06,15.95-13.1,32.64-14.98,49.62Z" style="fill: inherit;"/><path d="M11.19,563.08l-.49-.08c2.87-17.3,8.75-34.32,17.5-50.6,14.13-26.28,35.13-47.76,59.14-60.47,31.38-16.62,69.15-21.89,115.47-16.13,13.73,1.71,28.42,4.37,44.9,8.12,9.53,2.17,19.24,4.55,28.62,6.84,13.93,3.41,28.33,6.94,42.57,9.89,36.34,7.52,64.38,9.69,90.91,7.03,43.9-4.4,83.35-22.82,112.81-38.38,14.84-7.84,29.7-16.39,44.06-24.66,48.26-27.79,98.15-56.52,153.45-61.13,25.92-2.13,52.26,1.18,77.72,4.38,10.31,1.3,20.98,2.64,31.51,3.61,46.25,4.23,81.11-1.3,106.59-16.9l.26,.43c-25.58,15.66-60.54,21.22-106.9,16.97-10.54-.97-21.21-2.31-31.53-3.61-25.44-3.2-51.74-6.51-77.62-4.38-55.19,4.61-105.04,33.31-153.24,61.07-14.37,8.27-29.23,16.83-44.08,24.67-29.5,15.58-69,34.03-112.99,38.43-26.59,2.66-54.67,.49-91.06-7.04-14.25-2.95-28.66-6.48-42.59-9.89-9.39-2.3-19.09-4.68-28.62-6.84-16.47-3.75-31.14-6.4-44.85-8.11-46.21-5.75-83.88-.49-115.17,16.08-23.92,12.67-44.85,34.07-58.93,60.26-8.72,16.23-14.59,33.2-17.45,50.45Z" style="fill: inherit;"/><path d="M12.8,563.28l-.49-.11c3.84-17.56,10.56-34.86,19.98-51.41,15.47-27.2,37.6-49,62.31-61.39,31.6-15.84,69.06-20.49,114.52-14.21,13.49,1.87,28,4.68,44.37,8.6,8.72,2.08,17.61,4.34,26.2,6.53,14.46,3.68,29.42,7.48,44.23,10.62,35.24,7.46,63.89,9.73,90.16,7.15,34.43-3.39,68.95-15.08,111.93-37.91,15.66-8.32,31.27-17.47,46.37-26.32,46.59-27.31,94.77-55.55,148.23-61.12,26.32-2.7,53.18,.25,79.16,3.1,9.43,1.04,19.18,2.11,28.8,2.9,46.63,3.81,80.26-1.15,105.84-15.61l.25,.44c-25.67,14.5-59.4,19.48-106.13,15.67-9.63-.79-19.39-1.86-28.82-2.9-25.95-2.85-52.78-5.79-79.05-3.1-53.35,5.56-101.48,33.77-148.03,61.05-15.1,8.85-30.72,18.01-46.39,26.33-43.04,22.86-77.61,34.57-112.12,37.97-26.32,2.59-55.01,.32-90.31-7.16-14.83-3.14-29.79-6.94-44.25-10.62-8.59-2.18-17.48-4.44-26.2-6.53-16.35-3.91-30.85-6.72-44.32-8.59-45.35-6.27-82.71-1.64-114.22,14.16-24.63,12.34-46.68,34.07-62.1,61.19-9.39,16.51-16.09,33.76-19.92,51.27Z" style="fill: inherit;"/><path d="M14.41,563.48l-.48-.13c4.82-17.83,12.38-35.4,22.45-52.23,16.84-28.14,40.1-50.27,65.49-62.31,31.31-14.86,69.52-18.99,113.56-12.28,13.24,2.02,27.57,4.99,43.83,9.07,7.94,1.99,16.02,4.12,23.84,6.19,14.98,3.95,30.46,8.04,45.84,11.37,34.64,7.5,63.04,9.8,89.4,7.26,34.14-3.3,69.42-15.2,111.05-37.44,16.46-8.8,32.8-18.56,48.61-28,44.95-26.85,91.43-54.61,143.08-61.08,26.8-3.3,54.27-.72,80.84,1.78,8.46,.79,17.21,1.62,25.85,2.24,29.2,2.09,71.86,2.88,105.09-14.31l.23,.44c-33.34,17.25-76.09,16.46-105.35,14.36-8.64-.63-17.4-1.45-25.86-2.24-26.54-2.49-53.99-5.07-80.74-1.78-51.54,6.46-95.91,32.96-142.88,61.02-15.81,9.44-32.16,19.21-48.63,28.01-41.69,22.28-77.04,34.19-111.24,37.5-26.4,2.55-54.86,.25-89.55-7.27-15.39-3.33-30.88-7.42-45.86-11.38-7.82-2.06-15.9-4.2-23.83-6.19-16.25-4.08-30.57-7.04-43.79-9.06-43.94-6.69-82.06-2.57-113.28,12.24-25.3,12-48.48,34.06-65.27,62.12-10.05,16.79-17.58,34.32-22.39,52.1Z" style="fill: inherit;"/><path d="M16.03,563.68l-.48-.15c5.8-18.09,14.19-35.94,24.92-53.04,12.91-20.58,35.31-48.26,68.66-63.23,31.4-14.1,69.29-17.58,112.61-10.36,12.98,2.18,27.15,5.3,43.3,9.55,7.17,1.89,14.48,3.89,21.54,5.82,15.47,4.24,31.46,8.62,47.38,12.15,34.04,7.54,62.2,9.88,88.64,7.37,34.29-3.26,69.3-15,110.17-36.98,17.24-9.27,34.28-19.65,50.77-29.69,45.33-27.61,88.15-53.69,138.01-61.03,27.36-3.95,55.57-1.75,82.85,.39,7.39,.58,15.03,1.18,22.58,1.65,31.55,1.94,71.93,2.21,104.34-13.01l.21,.45c-32.51,15.27-72.96,15-104.58,13.06-7.55-.47-15.19-1.07-22.58-1.65-27.25-2.13-55.43-4.34-82.74-.39-49.76,7.33-92.54,33.38-137.82,60.96-16.49,10.04-33.53,20.42-50.79,29.7-40.93,22-76,33.77-110.36,37.03-26.49,2.51-54.7,.17-88.79-7.38-15.93-3.53-31.93-7.92-47.4-12.16-7.06-1.94-14.37-3.94-21.54-5.82-16.14-4.25-30.29-7.37-43.26-9.54-43.23-7.21-81.02-3.74-112.33,10.32-33.24,14.92-55.57,42.52-68.44,63.04-10.71,17.07-19.07,34.88-24.86,52.93Z" style="fill: inherit;"/><path d="M17.64,563.88l-.47-.17c6.79-18.36,16-36.48,27.39-53.85,13.93-21.27,37.71-49.66,71.84-64.16,31.42-13.34,68.99-16.18,111.66-8.43,12.9,2.35,26.49,5.54,42.77,10.02,6.43,1.77,12.97,3.63,19.3,5.43,15.94,4.54,32.42,9.23,48.86,12.95,32.99,7.47,61.73,9.92,87.88,7.48,34.45-3.21,69.18-14.81,109.3-36.51,18.01-9.74,35.71-20.75,52.84-31.4,43.67-27.15,84.92-52.8,133.02-60.97,28.04-4.67,57.11-2.84,85.23-1.07,6.2,.39,12.61,.79,18.93,1.12,31.49,1.61,71.72,1.73,103.59-11.72l.19,.46c-31.96,13.48-72.26,13.37-103.81,11.75-6.33-.33-12.74-.73-18.94-1.12-28.09-1.77-57.13-3.6-85.11,1.07-48.01,8.15-89.22,33.77-132.84,60.9-17.13,10.65-34.84,21.66-52.87,31.41-40.18,21.73-74.97,33.35-109.49,36.57-26.2,2.44-55-.01-88.04-7.49-16.45-3.73-32.94-8.42-48.89-12.96-6.33-1.8-12.88-3.66-19.3-5.43-16.27-4.48-29.84-7.66-42.73-10.01-42.57-7.73-80.05-4.9-111.38,8.4-34.01,14.44-57.72,42.76-71.61,63.97-11.36,17.35-20.56,35.43-27.34,53.75Z" style="fill: inherit;"/><path d="M19.25,564.08l-.46-.19c7.77-18.62,17.82-37.01,29.86-54.67,14.98-21.97,40.15-51.09,75.01-65.08,31.39-12.6,68.64-14.79,110.71-6.51,12.62,2.5,26.05,5.84,42.23,10.5,5.7,1.64,11.51,3.36,17.13,5.02,16.39,4.84,33.34,9.85,50.28,13.78,32.41,7.51,60.91,9.99,87.12,7.6,34.11-3.12,69.58-14.9,108.42-36.04,18.75-10.21,37.09-21.86,54.83-33.12,42.04-26.7,81.74-51.93,128.12-60.88,28.84-5.46,57.6-4.08,88.05-2.61,4.86,.23,9.88,.48,14.84,.68,33.45,1.35,71.83,1.17,102.83-10.42l.18,.47c-31.09,11.62-69.53,11.81-103.03,10.45-4.96-.21-9.99-.45-14.85-.68-30.42-1.46-59.15-2.85-87.93,2.6-46.29,8.94-85.96,34.13-127.95,60.81-17.74,11.27-36.09,22.93-54.86,33.14-38.9,21.17-74.43,32.98-108.61,36.1-26.27,2.4-54.82-.09-87.28-7.61-16.96-3.93-33.91-8.94-50.31-13.79-5.62-1.66-11.43-3.38-17.13-5.02-16.18-4.66-29.58-7.99-42.19-10.49-41.98-8.26-79.13-6.08-110.43,6.48-34.74,13.94-59.84,42.99-74.78,64.9-12.02,17.63-22.05,35.99-29.81,54.58Z" style="fill: inherit;"/><path d="M20.86,564.27l-.45-.21c8.76-18.88,19.64-37.55,32.33-55.49,23.34-32.98,49.64-55.18,78.18-66,31.31-11.86,68.24-13.41,109.76-4.58,12.34,2.64,25.59,6.12,41.7,10.98,5,1.5,10.1,3.07,15.03,4.58,16.81,5.16,34.2,10.5,51.63,14.63,31.83,7.54,60.08,10.06,86.36,7.71,34.25-3.06,69.42-14.7,107.54-35.57,19.48-10.67,38.41-22.97,56.73-34.87,40.43-26.27,78.62-51.08,123.31-60.77,29.81-6.35,59.74-5.33,91.43-4.25,3.39,.12,6.79,.23,10.2,.34,35.26,1.05,72.03,.67,102.08-9.12l.15,.48c-30.12,9.81-66.95,10.2-102.25,9.15-3.4-.11-6.8-.22-10.2-.34-31.66-1.08-61.56-2.09-91.3,4.24-44.6,9.68-82.75,34.46-123.14,60.71-18.32,11.9-37.26,24.21-56.76,34.89-38.18,20.91-73.42,32.56-107.74,35.63-26.34,2.36-54.64-.17-86.52-7.72-17.44-4.14-34.84-9.48-51.66-14.64-4.93-1.51-10.02-3.08-15.02-4.58-16.1-4.85-29.34-8.33-41.66-10.97-41.43-8.8-78.27-7.27-109.48,4.56-28.45,10.78-54.68,32.93-77.95,65.82-12.67,17.91-23.53,36.55-32.28,55.41Z" style="fill: inherit;"/><path d="M22.47,564.47l-.45-.23c9.75-19.15,21.46-38.09,34.8-56.3,24.92-34.02,52.29-56.53,81.36-66.92,31.17-11.14,67.78-12.04,108.81-2.66,12.03,2.76,25.11,6.4,41.17,11.45,4.32,1.36,8.65,2.74,12.98,4.12,17.22,5.49,35.03,11.17,52.92,15.51,31.26,7.57,59.26,10.13,85.61,7.82,34.37-3.01,69.26-14.49,106.66-35.11,20.18-11.12,39.67-24.11,58.53-36.66,38.85-25.87,75.55-50.31,118.6-60.62,30.76-7.37,61.9-6.71,94.88-6.01l5.48,.11c34.67,.65,71.04,.58,101.33-7.82l.13,.48c-30.36,8.42-66.78,8.49-101.48,7.84l-5.48-.11c-32.94-.7-64.05-1.35-94.75,6-42.97,10.29-79.63,34.7-118.44,60.55-18.86,12.56-38.36,25.55-58.56,36.68-37.46,20.65-72.42,32.15-106.86,35.17-26.4,2.31-54.46-.25-85.77-7.83-17.91-4.34-35.73-10.03-52.96-15.52-4.33-1.38-8.65-2.76-12.97-4.12-16.04-5.04-29.11-8.68-41.13-11.44-40.93-9.35-77.45-8.46-108.53,2.64-28.97,10.36-56.27,32.81-81.12,66.75-13.32,18.19-25.02,37.11-34.75,56.23Z" style="fill: inherit;"/><path d="M24.08,564.67l-.44-.24c10.74-19.41,23.28-38.63,37.27-57.12,26.53-35.07,54.97-57.89,84.53-67.84,31-10.43,67.29-10.68,107.86-.74,11.89,2.93,24.42,6.61,40.63,11.93,3.67,1.2,7.34,2.42,11.02,3.64,17.59,5.83,35.78,11.86,54.12,16.4,30.69,7.6,58.45,10.2,84.85,7.93,34.01-2.91,69.6-14.57,105.78-34.64,20.86-11.57,40.87-25.23,60.22-38.43,37.32-25.47,72.56-49.52,114-60.49,32.11-8.5,66.16-8.19,99.09-7.88,32.7,.25,69.77,.53,100.59-6.53l.11,.49c-30.87,7.07-67.97,6.79-100.7,6.54-32.9-.31-66.92-.62-98.96,7.86-41.35,10.95-76.56,34.98-113.84,60.42-19.36,13.21-39.38,26.87-60.26,38.46-36.25,20.11-71.9,31.78-105.98,34.7-26.45,2.26-54.26-.33-85.01-7.95-18.35-4.55-36.56-10.58-54.16-16.41-3.68-1.22-7.35-2.44-11.02-3.64-16.2-5.32-28.73-8.99-40.6-11.92-40.48-9.92-76.68-9.68-107.58,.73-29.47,9.92-57.83,32.69-84.29,67.67-13.97,18.47-26.5,37.67-37.23,57.06Z" style="fill: inherit;"/><path d="M25.69,564.86l-.43-.26c11.73-19.67,25.1-39.17,39.74-57.93,28.57-36.64,57.26-59.13,87.71-68.76,30.78-9.74,66.75-9.34,106.91,1.19,14.81,3.9,29.21,8.68,40.1,12.4,3.03,1.04,6.07,2.08,9.11,3.13,17.95,6.18,36.51,12.57,55.28,17.33,29.72,7.52,58.01,10.23,84.09,8.05,34.11-2.86,69.41-14.35,104.91-34.17,21.51-12.01,41.99-26.35,61.81-40.22,35.82-25.07,69.64-48.75,109.5-60.35,30.93-9,62.6-9.79,97.82-9.86,2.53,0,5.06-.02,7.61-.02,31.64-.08,64.35-.17,92.23-5.21l.09,.49c-27.92,5.04-60.66,5.13-92.31,5.21-2.54,0-5.08,.01-7.61,.02-35.18,.07-66.81,.86-97.68,9.85-39.77,11.57-73.57,35.23-109.35,60.27-19.82,13.87-40.32,28.22-61.85,40.24-35.56,19.85-70.92,31.37-105.11,34.23-26.14,2.19-54.48-.52-84.25-8.06-18.78-4.76-37.36-11.15-55.31-17.34-3.04-1.05-6.08-2.09-9.11-3.13-10.89-3.72-25.28-8.5-40.07-12.39-40.07-10.5-75.95-10.9-106.64-1.19-30.35,9.6-58.96,32.04-87.46,68.59-14.62,18.75-27.98,38.23-39.7,57.88Z" style="fill: inherit;"/><path d="M27.3,565.06l-.42-.27c12.73-19.93,26.93-39.7,42.21-58.75,30.68-38.25,59.56-60.39,90.88-69.69,30.95-9.18,65.61-8.17,105.96,3.11,14.27,4.01,28.01,8.76,39.57,12.88,2.42,.86,4.85,1.73,7.27,2.6,18.28,6.54,37.19,13.3,56.36,18.27,29.17,7.55,57.2,10.29,83.33,8.16,34.22-2.8,69.22-14.14,104.03-33.71,22.14-12.45,43.06-27.48,63.3-42.02,34.35-24.68,66.79-48,105.09-60.18,31.93-10.16,66.58-11.44,96.55-11.85,6.42-.1,13.01-.16,19.39-.22,27.21-.25,55.36-.5,79.7-3.71l.07,.5c-24.37,3.21-52.53,3.47-79.76,3.72-6.38,.06-12.97,.12-19.39,.22-29.94,.41-64.54,1.69-96.41,11.83-38.23,12.16-70.64,35.45-104.95,60.11-20.25,14.55-41.18,29.59-63.34,42.05-34.88,19.61-69.94,30.97-104.23,33.77-26.18,2.14-54.28-.61-83.5-8.17-19.19-4.97-38.11-11.74-56.4-18.29-2.42-.87-4.85-1.73-7.27-2.6-11.55-4.12-25.28-8.86-39.54-12.87-40.25-11.25-74.82-12.27-105.68-3.11-31.22,9.26-60.02,31.36-90.63,69.52-15.27,19.04-29.46,38.79-42.17,58.71Z" style="fill: inherit;"/><path d="M28.91,565.25l-.41-.28c13.72-20.2,28.76-40.24,44.68-59.57,20.4-24.77,52.35-59.03,94.06-70.61,30.66-8.51,65.02-6.86,105.01,5.03,13.78,4.12,27.47,9.06,39.03,13.35l5.51,2.05c18.59,6.91,37.81,14.06,57.36,19.24,28.62,7.58,56.41,10.36,82.57,8.27,34.31-2.73,69.01-13.92,103.15-33.24,22.74-12.87,44.06-28.62,64.68-43.84,32.92-24.31,64.01-47.27,100.79-60,31.28-10.83,64.28-13.05,95.29-13.83,11.21-.3,22.77-.42,33.95-.53,21.86-.22,44.46-.45,64.39-2.1l.04,.5c-19.95,1.66-42.56,1.88-64.43,2.1-11.18,.11-22.73,.23-33.94,.53-30.97,.79-63.93,3-95.14,13.81-36.72,12.71-67.78,35.65-100.66,59.93-20.63,15.23-41.97,30.99-64.73,43.88-34.2,19.36-68.98,30.56-103.35,33.3-26.22,2.09-54.06-.7-82.74-8.29-19.58-5.19-38.81-12.34-57.41-19.25l-5.51-2.05c-11.56-4.29-25.23-9.23-39-13.34-39.91-11.87-74.17-13.52-104.74-5.03-41.57,11.54-73.44,45.73-93.8,70.45-15.91,19.31-30.93,39.34-44.65,59.53Z" style="fill: inherit;"/><path d="M30.52,565.45l-.41-.29c14.72-20.46,30.58-40.78,47.14-60.39,23.34-27.63,55.48-60.72,97.23-71.53,30.34-7.86,64.38-5.58,104.06,6.96,13.24,4.2,26.33,9.13,38.5,13.83l3.83,1.48c18.87,7.29,38.37,14.82,58.29,20.22,28.08,7.6,55.61,10.42,81.81,8.39,34.39-2.67,68.8-13.7,102.27-32.77,23.32-13.29,45-29.76,65.96-45.68,31.52-23.94,61.29-46.56,96.6-59.8,32.28-12.11,67.2-14.81,94.02-15.82,17.48-.68,35.46-.73,52.86-.77,15.75-.04,30.62-.08,44.74-.56l.02,.5c-14.12,.48-29,.52-44.75,.56-17.39,.04-35.37,.09-52.84,.77-26.78,1-61.66,3.7-93.86,15.79-35.24,13.22-64.99,35.82-96.48,59.73-20.98,15.93-42.67,32.41-66.01,45.71-33.54,19.11-68.02,30.16-102.48,32.84-26.26,2.04-53.84-.79-81.98-8.4-19.94-5.4-39.46-12.94-58.33-20.23l-3.83-1.48c-12.16-4.7-25.24-9.62-38.47-13.82-39.59-12.51-73.53-14.78-103.79-6.95-41.62,10.77-73.69,43.8-96.97,71.37-16.56,19.6-32.41,39.91-47.12,60.36Z" style="fill: inherit;"/><path d="M32.13,565.64l-.4-.3c15.71-20.72,32.4-41.31,49.61-61.21,16.64-19.23,31.01-33.35,45.23-44.43,18.42-14.35,36.47-23.52,55.17-28.02,30-7.22,63.73-4.32,103.11,8.88,13.32,4.48,26.58,9.73,37.97,14.3l2.21,.89c19.12,7.68,38.9,15.62,59.15,21.22,27.55,7.62,54.82,10.48,81.06,8.5,34.46-2.6,68.58-13.47,101.39-32.3,23.9-13.72,45.93-30.93,67.23-47.57,28.81-22.51,58.61-45.78,92.41-59.56,25.47-10.27,54.94-15.92,92.75-17.8,26.52-1.36,53.41-.84,79.43-.34,5.93,.11,11.75,.23,17.42,.31v.5c-5.68-.08-11.5-.2-17.43-.31-26-.5-52.89-1.01-79.39,.34-37.76,1.88-67.18,7.52-92.59,17.77-33.74,13.75-62.18,35.97-92.29,59.49-21.32,16.65-43.36,33.87-67.29,47.6-32.88,18.87-67.07,29.76-101.6,32.37-26.29,1.99-53.62-.88-81.23-8.51-20.28-5.62-40.07-13.56-59.21-21.24l-2.21-.89c-11.38-4.57-24.63-9.82-37.94-14.3-39.29-13.16-72.93-16.07-102.84-8.87-42.09,10.13-75.63,43.96-100.14,72.29-17.2,19.89-33.89,40.47-49.59,61.18Z" style="fill: inherit;"/><path d="M33.74,565.83l-.39-.31c16.71-20.99,34.24-41.85,52.08-62.02,27.41-30.98,61.15-63.93,103.58-73.38,29.64-6.6,63.05-3.07,102.16,10.8,12.68,4.51,25.44,9.78,37.43,14.78l.63,.26c19.36,8.08,39.39,16.43,59.97,22.26,27.02,7.64,54.04,10.54,80.3,8.61,34.05-2.5,68.8-13.51,100.52-31.84,24.43-14.12,46.73-32.08,68.3-49.44,27.55-22.18,56.04-45.11,88.44-59.32,25.47-11.07,55.4-17.54,91.49-19.79,34.02-2.16,69.23-.46,96.1,1.27l-.03,.5c-26.86-1.73-62.04-3.43-96.03-1.27-36.03,2.24-65.9,8.7-91.32,19.75-32.34,14.18-60.8,37.1-88.32,59.25-21.58,17.38-43.9,35.34-68.36,49.48-31.78,18.37-66.61,29.4-100.73,31.9-26.32,1.93-53.4-.97-80.47-8.63-20.61-5.83-40.65-14.19-60.03-22.28l-.63-.26c-11.98-5-24.74-10.26-37.41-14.77-39.02-13.84-72.34-17.37-101.89-10.79-42.29,9.42-75.96,42.3-103.31,73.22-17.84,20.16-35.36,41.03-52.07,62Z" style="fill: inherit;"/><path d="M35.35,566.03l-.38-.32c17.72-21.25,36.08-42.4,54.55-62.84,30.2-33.41,64.03-65.54,106.75-74.3,29.25-6,62.36-1.84,101.21,12.73,11.99,4.51,23.81,9.58,36.9,15.25,19.16,8.31,38.97,16.9,59.85,22.94,26.5,7.66,53.26,10.59,79.54,8.72,34.1-2.43,68.56-13.28,99.64-31.37,24.93-14.51,47.46-33.23,69.25-51.32,26.32-21.86,53.54-44.47,84.58-59.08,25.74-12.03,55.25-19.15,90.22-21.77,28.89-2.2,60.97-1.34,95.35,2.57l-.06,.5c-34.35-3.9-66.4-4.77-95.25-2.57-34.9,2.62-64.36,9.73-90.04,21.73-30.98,14.58-58.17,37.17-84.47,59.01-21.8,18.11-44.35,36.83-69.31,51.37-31.14,18.13-65.67,29-99.85,31.44-26.34,1.88-53.16-1.06-79.71-8.74-20.91-6.05-40.73-14.65-59.91-22.96-13.09-5.68-24.89-10.74-36.88-15.25-38.76-14.53-71.78-18.69-100.94-12.71-42.58,8.73-76.34,40.8-106.48,74.14-18.47,20.44-36.82,41.58-54.54,62.83Z" style="fill: inherit;"/><path d="M36.96,566.22l-.38-.33c18.7-21.49,37.89-42.91,57.02-63.66,29.45-31.94,64.67-66.72,109.93-75.22,28.86-5.42,61.66-.63,100.26,14.65,12.12,4.81,24.24,10.27,35.96,15.55l.41,.19c21.53,9.69,39.55,17.57,59.09,23.35,25.98,7.68,52.48,10.65,78.78,8.84,34.16-2.36,68.31-13.04,98.76-30.9,25.4-14.89,48.11-34.37,70.07-53.21,25.14-21.56,51.13-43.85,80.84-58.83,25.57-12.81,55.5-20.81,88.95-23.76,29.99-2.67,62.7-1.33,94.6,3.87l-.08,.49c-31.86-5.2-64.53-6.54-94.48-3.87-33.39,2.94-63.26,10.92-88.77,23.7-29.66,14.95-55.62,37.22-80.74,58.76-21.98,18.85-44.71,38.35-70.15,53.26-30.52,17.9-64.74,28.61-98.98,30.97-26.35,1.83-52.92-1.16-78.96-8.85-19.57-5.79-37.61-13.67-59.15-23.37l-.41-.18c-11.71-5.28-23.83-10.74-35.93-15.54-38.52-15.24-71.22-20.03-99.99-14.63-45.11,8.47-80.25,43.19-109.65,75.07-19.13,20.74-38.31,42.16-57.01,63.65Z" style="fill: inherit;"/><path d="M38.57,566.41l-.37-.34c19.72-21.77,39.74-43.47,59.49-64.48,32.21-34.26,67.47-68.35,113.1-76.14,28.85-4.93,60.41,.34,99.32,16.58,11.25,4.7,22.51,9.97,33.4,15.07l2.43,1.14c20.28,9.48,38.67,17.82,58.33,23.76,25.46,7.7,51.71,10.71,78.02,8.95,34.2-2.29,68.05-12.81,97.88-30.44,25.83-15.26,48.68-35.52,70.77-55.11,23.99-21.27,48.8-43.26,77.23-58.57,25.68-13.78,55.19-22.44,87.68-25.74,30.73-3.14,63.19-1.35,93.85,5.17l-.1,.49c-30.61-6.52-63.01-8.3-93.7-5.17-32.43,3.3-61.87,11.94-87.5,25.68-28.38,15.28-53.16,37.26-77.13,58.51-22.11,19.6-44.98,39.88-70.85,55.16-29.9,17.67-63.82,28.21-98.1,30.5-26.37,1.76-52.68-1.26-78.2-8.97-19.7-5.96-38.1-14.3-58.4-23.79l-2.43-1.14c-10.88-5.09-22.14-10.36-33.38-15.06-38.81-16.2-70.29-21.46-99.04-16.54-45.48,7.77-80.67,41.8-112.82,75.99-19.75,21.01-39.77,42.7-59.49,64.47Z" style="fill: inherit;"/><path d="M40.18,566.6l-.36-.34c20.76-22.07,41.6-44.04,61.96-65.3,15.27-15.95,33.21-34.17,52.84-48.65,21.53-15.87,42.28-25.17,63.43-28.42,28.43-4.38,59.69,1.5,98.37,18.5,10.43,4.59,20.87,9.67,30.97,14.58l4.33,2.1c19.07,9.26,37.83,18.07,57.58,24.18,24.96,7.71,50.95,10.76,77.26,9.06,34.24-2.21,67.78-12.57,97-29.97,26.23-15.62,49.17-36.66,71.35-57,22.88-20.99,46.54-42.69,73.73-58.31,25.73-14.75,54.81-24.08,86.42-27.73,31.09-3.6,63.29-1.36,93.1,6.48l-.13,.48c-29.76-7.82-61.89-10.06-92.92-6.46-31.54,3.64-60.55,12.94-86.22,27.66-27.14,15.59-50.78,37.28-73.64,58.25-22.2,20.36-45.16,41.42-71.43,57.07-29.29,17.44-62.91,27.83-97.23,30.04-26.37,1.7-52.43-1.35-77.44-9.08-19.79-6.12-38.56-14.94-57.65-24.21l-4.33-2.1c-10.1-4.91-20.53-9.99-30.96-14.57-38.58-16.96-69.75-22.83-98.09-18.46-45.82,7.05-82.43,41.87-115.99,76.92-20.36,21.26-41.2,43.23-61.96,65.29Z" style="fill: inherit;"/><path d="M41.79,566.8l-.36-.35,64.43-66.12c16.79-17.22,34.81-35.24,54.37-49.52,22.16-16.18,43.45-25.5,65.09-28.47,36.8-5.06,73.22,9.23,97.42,20.42,9.69,4.48,19.39,9.39,28.77,14.13,20.14,10.19,40.97,20.72,62.81,27.62,56.92,17.98,121.45,10.38,172.63-20.33,26.6-15.96,49.58-37.79,71.81-58.9,21.82-20.72,44.37-42.15,70.37-58.05,52.46-32.09,118.82-40.29,177.5-21.93l-.15,.48c-58.56-18.31-124.76-10.13-177.09,21.88-25.95,15.87-48.49,37.28-70.28,57.99-22.24,21.13-45.25,42.98-71.89,58.97-51.3,30.78-115.99,38.4-173.04,20.38-21.88-6.91-42.73-17.45-62.89-27.65-9.38-4.74-19.08-9.65-28.76-14.12-24.14-11.16-60.46-25.42-97.14-20.38-46.17,6.34-82.71,40.44-119.16,77.84l-64.43,66.12Z" style="fill: inherit;"/></g><g id="__id23_swhbt1xc48"><path d="M174.83,483.9l-.14-.23c-4.34-7.05-6.72-15.49-6.7-23.77,.02-5.62,2.56-11.44,7.39-11.67,3.87-.19,6.84,3.55,7.36,7.13,.37,2.51-.12,4.99-.83,7.33,2.32-3.33,5.06-6.04,7.91-7.8,4.07-2.51,10.35-2.48,13.2,1.57,1.79,2.54,1.88,6.29,.25,9.57-1.56,3.13-4.34,5.46-6.6,7.14-7.4,5.51-12.29,9.15-21.59,10.7l-.26,.04Zm2.88-34.44c-.71-.31-1.48-.47-2.29-.43-4.84,.23-6.62,6.63-6.63,10.88-.02,8.04,2.26,16.24,6.44,23.12,8.95-1.54,13.75-5.11,20.99-10.5,2.18-1.62,4.87-3.87,6.36-6.86,1.5-3.02,1.43-6.46-.19-8.76-2.59-3.69-8.37-3.68-12.13-1.35-3.54,2.19-6.9,5.89-9.46,10.42l-.72-.33c1.13-3.13,2.41-6.68,1.89-10.18-.36-2.46-1.98-5.01-4.24-6.01Z" style="fill: rgb(255, 221, 210);"/></g><g id="__id24_swhbt1xc48"><path d="M193.9,501.02c.06-5.01,1.54-9.99,4.23-14.22,1.59-2.51,4.66-4.97,7.24-3.51,1.87,1.06,2.24,3.76,1.36,5.73s-2.64,3.37-4.34,4.69c2.5-1.34,5.5-2.33,8.34-2.3,2.84,.03,5.88,2.01,6.02,4.85,.1,1.94-1.19,3.76-2.85,4.77s-3.65,1.34-5.58,1.49c-5.59,.43-9.25,.68-14.41-1.49Z" style="fill: rgb(255, 141, 199);"/></g><g id="__id25_swhbt1xc48"><path d="M758.06,397.88l-.2-.14c-6.09-4.19-11.07-10.22-14.04-16.99-2.01-4.6-2.04-10.26,1.82-12.19,3.09-1.55,6.86,.44,8.58,3.16,1.2,1.91,1.7,4.11,1.96,6.28,.69-3.55,1.95-6.75,3.65-9.22,2.42-3.52,7.55-5.76,11.34-3.48,2.37,1.43,3.81,4.46,3.66,7.72-.14,3.12-1.58,6.02-2.81,8.21-4.05,7.17-6.73,11.9-13.77,16.52l-.2,.13Zm-10.06-29.15c-.69,0-1.38,.15-2.03,.47-3.87,1.94-3.01,7.8-1.49,11.27,2.88,6.58,7.7,12.45,13.59,16.55,6.75-4.48,9.38-9.13,13.34-16.14,1.19-2.11,2.58-4.92,2.72-7.89,.14-3.01-1.16-5.78-3.31-7.08-3.45-2.07-8.16,.02-10.39,3.27-2.1,3.06-3.51,7.29-3.97,11.92h-.71c-.21-2.97-.44-6.33-2.12-9-1.18-1.88-3.42-3.38-5.63-3.38Z" style="fill: rgb(255, 221, 210);"/></g><g id="__id26_swhbt1xc48"><path d="M715.77,391.42c-1.76-4.11-2.35-8.71-1.67-13.13,.4-2.62,2.01-5.74,4.65-5.47,1.91,.19,3.18,2.26,3.18,4.18s-.94,3.7-1.85,5.39c1.56-2,3.65-3.89,5.98-4.89s5.52-.47,6.66,1.79c.78,1.55,.38,3.5-.61,4.92s-2.49,2.41-4.02,3.23c-4.4,2.36-7.31,3.89-12.31,3.98Z" style="fill: rgb(255, 141, 199);"/></g><g id="__id27_swhbt1xc48"><path d="M416.82,454.24l-.23-.16c-7.08-4.88-12.88-11.9-16.33-19.77-2.34-5.35-2.37-11.94,2.12-14.19,3.6-1.8,7.99,.51,9.98,3.68,1.4,2.23,1.98,4.79,2.29,7.31,.8-4.13,2.27-7.86,4.25-10.73,2.81-4.1,8.79-6.7,13.2-4.05,2.76,1.66,4.43,5.19,4.25,8.98-.17,3.63-1.84,7.01-3.27,9.55-4.72,8.34-7.83,13.85-16.03,19.22l-.23,.15Zm-11.71-33.93c-.8,0-1.6,.17-2.36,.55-4.5,2.25-3.5,9.08-1.73,13.12,3.35,7.65,8.96,14.48,15.81,19.26,7.86-5.21,10.92-10.63,15.53-18.78,1.39-2.46,3.01-5.72,3.16-9.18,.16-3.5-1.35-6.73-3.85-8.24-4.01-2.42-9.49,.02-12.09,3.81-2.45,3.56-4.09,8.48-4.62,13.87h-.82c-.24-3.46-.52-7.36-2.47-10.47-1.37-2.19-3.98-3.93-6.55-3.93Z" style="fill: rgb(255, 141, 199);"/></g><g id="__id28_swhbt1xc48"><path d="M367.61,446.73c-2.05-4.78-2.73-10.14-1.95-15.28,.46-3.05,2.34-6.68,5.41-6.37,2.22,.22,3.7,2.63,3.7,4.87s-1.09,4.31-2.15,6.28c1.81-2.33,4.24-4.52,6.95-5.68,2.71-1.16,6.43-.55,7.75,2.08,.91,1.8,.45,4.07-.71,5.72s-2.9,2.8-4.68,3.76c-5.13,2.75-8.5,4.53-14.32,4.63Z" style="fill: rgb(255, 185, 185);"/></g></svg>